<?xml version="1.0" standalone="no"?>
<!DOCTYPE svg PUBLIC "-//W3C//DTD SVG 20010904//EN"
 "http://www.w3.org/TR/2001/REC-SVG-20010904/DTD/svg10.dtd">
<svg version="1.0" xmlns="http://www.w3.org/2000/svg"
 width="1280.000000pt" height="1280.000000pt" viewBox="0 0 1280.000000 1280.000000"
 preserveAspectRatio="xMidYMid meet">
<metadata>
Created by potrace 1.14, written by Peter Selinger 2001-2017
</metadata>
<g transform="translate(0.000000,1280.000000) scale(0.100000,-0.100000)"
fill="#000000" stroke="none">
<path d="M5919 8696 c-2 -2 -92 -7 -199 -11 -247 -8 -417 -17 -570 -30 -25 -2
-83 -6 -130 -10 -47 -3 -101 -8 -120 -10 -19 -1 -71 -6 -115 -10 -44 -4 -93
-8 -110 -10 -16 -2 -59 -6 -95 -10 -123 -13 -145 -15 -170 -20 -25 -5 -58 -8
-175 -20 -33 -4 -100 -13 -150 -20 -49 -8 -110 -17 -135 -20 -25 -3 -56 -8
-70 -10 -46 -8 -95 -17 -115 -20 -188 -27 -568 -100 -785 -152 -58 -13 -116
-27 -130 -29 -14 -3 -47 -11 -75 -19 -27 -8 -61 -16 -75 -19 -195 -39 -879
-258 -1065 -341 -16 -7 -55 -23 -85 -35 -170 -67 -529 -247 -676 -340 -89 -56
-181 -116 -194 -127 -8 -6 -60 -47 -115 -91 -270 -214 -439 -433 -521 -674
-12 -37 -21 -68 -19 -68 3 0 0 -12 -6 -27 -17 -43 -19 -249 -4 -332 49 -255
189 -470 475 -730 166 -151 505 -363 815 -508 204 -95 277 -126 495 -208 222
-83 731 -242 865 -270 11 -2 76 -18 145 -35 121 -30 358 -84 411 -93 14 -3 75
-15 135 -26 60 -12 136 -26 169 -32 33 -6 80 -15 105 -19 25 -5 63 -12 85 -15
22 -3 51 -7 65 -10 48 -9 85 -15 130 -21 25 -3 52 -7 60 -9 8 -2 42 -7 74 -11
33 -3 64 -7 70 -9 40 -8 353 -46 501 -61 39 -3 84 -8 100 -10 17 -1 59 -5 95
-9 36 -3 83 -7 105 -9 22 -3 83 -7 135 -11 52 -3 115 -8 140 -10 25 -2 97 -7
160 -11 63 -3 135 -8 160 -9 403 -25 1308 -25 1790 0 127 7 370 23 465 31 33
2 87 7 120 9 101 8 189 16 215 20 14 2 57 7 95 10 39 3 106 11 150 16 44 5 98
12 120 15 22 2 56 6 75 9 19 2 51 6 70 9 38 5 176 24 225 31 17 3 39 6 50 9
11 2 45 7 75 11 30 4 64 9 75 11 11 3 61 11 110 19 50 8 101 17 115 20 14 2
84 16 155 29 128 25 155 30 205 41 14 3 34 7 45 9 11 2 81 18 155 36 74 17
146 33 160 36 130 26 630 171 808 234 48 17 107 37 132 44 161 48 650 265 848
378 46 27 86 48 89 48 4 0 21 11 39 25 18 14 35 25 39 25 14 0 289 193 326
229 9 9 38 34 64 56 89 74 202 196 271 293 145 206 206 393 200 607 -5 154
-58 333 -128 437 -10 14 -18 29 -18 33 0 4 -31 48 -69 99 -279 371 -773 691
-1513 979 -62 25 -192 71 -288 102 -96 32 -184 62 -195 66 -20 8 -323 95 -360
104 -11 2 -74 18 -140 36 -66 17 -127 32 -135 34 -8 2 -78 18 -155 35 -214 48
-446 94 -640 126 -16 2 -37 7 -45 9 -8 3 -37 7 -63 9 -26 3 -51 7 -55 10 -4 2
-34 7 -66 11 -33 3 -62 8 -65 9 -3 2 -35 7 -71 10 -36 4 -74 9 -85 12 -11 2
-36 6 -55 9 -54 5 -132 15 -168 20 -79 12 -437 49 -572 60 -36 3 -81 7 -100
10 -19 2 -84 7 -144 10 -60 3 -125 7 -145 10 -20 2 -99 7 -176 10 -77 3 -167
8 -200 11 -70 5 -1221 14 -1226 10z"/>
</g>
</svg>
